<?xml version="1.0" encoding="UTF-8"?><svg id="Layer_2" xmlns="http://www.w3.org/2000/svg" width="90" height="130" xmlns:xlink="http://www.w3.org/1999/xlink" viewBox="0 0 90 130"><defs><style>.cls-1{fill:none;}.cls-2{fill:#107623;}.cls-3{fill:url(#New_Pattern_Swatch_1);stroke:#64ab61;stroke-miterlimit:10;}.cls-4{fill:#64ab61;}.cls-5{fill:#39b54a;}.cls-6{fill:#5d9b5a;}.cls-7{fill:#754c24;}.cls-8{fill:#f2f2f2;}.cls-9{fill:#93e888;}</style><pattern id="New_Pattern_Swatch_1" x="0" y="0" width="90" height="90" patternTransform="translate(-6296.41 -5528.69) rotate(12.97) scale(.43) skewX(.14)" patternUnits="userSpaceOnUse" viewBox="0 0 90 90"><rect class="cls-1" width="90" height="90"/><rect class="cls-6" width="90" height="90"/></pattern></defs><path class="cls-4" d="M20.68,35.8c-.55,2.42-.59,4.73.74,6.78,1.49,2.29,3.97,4.09,7.01,4.79,2.82.65,5.6.25,7.84-.93s4.12-3.33,4.72-5.95c.44-1.92.19-3.86-.6-5.61-1.31-2.9-3.49-4.27-7.09-5.1-2.88-.66-5.66-.87-7.94.38s-4.1,3.09-4.68,5.65Z"/><path class="cls-9" d="M22.68,37.16c-.13,1.35.19,1.98,1.31,2.37,1.25.43,2.49.14,3.81.38s2.78.19,4.05-.38c1.27-.57,2.41-1.43,2.92-2.75.37-.96.54-1.69-.1-2.67-1.05-1.63-2.92-2.08-4.93-2.11-1.61-.02-3.65.43-4.91,1.43-1.26,1.01-2.02,2.37-2.15,3.72Z"/><path class="cls-8" d="M25.17,36.5c-.06.67.1.99.66,1.19.63.22,1.25.07,1.91.19s1.39.1,2.02-.19c.64-.29,1.2-.72,1.46-1.37.19-.48.27-.84-.05-1.33-.53-.81-1.46-1.04-2.47-1.06-.8-.01-1.82.21-2.45.72-.63.5-1.01,1.18-1.08,1.86Z"/><path class="cls-4" d="M28.25,49.47c-.55,2.42-.59,4.73.74,6.78,1.49,2.29,3.97,4.09,7.01,4.79,2.82.65,5.6.25,7.84-.93s4.12-3.33,4.72-5.95c.44-1.92.19-3.86-.6-5.61-1.31-2.9-3.49-4.27-7.09-5.1-2.88-.66-5.66-.87-7.94.38s-4.1,3.09-4.68,5.65Z"/><path class="cls-4" d="M11.69,48.64c-.55,2.42-.59,4.73.74,6.78,1.49,2.29,3.97,4.09,7.01,4.79,2.82.65,5.6.25,7.84-.93s4.12-3.33,4.72-5.95c.44-1.92.19-3.86-.6-5.61-1.31-2.9-3.49-4.27-7.09-5.1-2.88-.66-5.66-.87-7.94.38s-4.1,3.09-4.68,5.65Z"/><path class="cls-9" d="M30.03,50.21c-.13,1.35.19,1.98,1.31,2.37,1.25.43,2.49.14,3.81.38s2.78.19,4.05-.38c1.27-.57,2.41-1.43,2.92-2.75.37-.96.54-1.69-.1-2.67-1.05-1.63-2.92-2.08-4.93-2.11-1.61-.02-3.65.43-4.91,1.43-1.26,1.01-2.02,2.37-2.15,3.72Z"/><path class="cls-4" d="M46.12,52.47c-.55,2.42-.59,4.73.74,6.78,1.49,2.29,3.97,4.09,7.01,4.79,2.82.65,5.6.25,7.84-.93s4.12-3.33,4.72-5.95c.44-1.92.19-3.86-.6-5.61-1.31-2.9-3.49-4.27-7.09-5.1-2.88-.66-5.66-.87-7.94.38s-4.1,3.09-4.68,5.65Z"/><path class="cls-4" d="M4.13,61.52c-.55,2.42-.59,4.73.74,6.78,1.49,2.29,3.97,4.09,7.01,4.79,2.82.65,5.6.25,7.84-.93s4.12-3.33,4.72-5.95c.44-1.92.19-3.86-.6-5.61-1.31-2.9-3.49-4.27-7.09-5.1-2.88-.66-5.66-.87-7.94.38s-4.1,3.09-4.68,5.65Z"/><path class="cls-4" d="M22.16,62.92c-.51,2.24-.6,4.37.43,6.21,1.16,2.07,3.13,3.66,5.6,4.22,2.28.53,4.56.08,6.42-1.06s3.44-3.16,4-5.59c.41-1.78.25-3.56-.35-5.14-1-2.64-2.74-3.84-5.66-4.51-2.33-.54-4.59-.66-6.48.55s-3.42,2.94-3.96,5.32Z"/><path class="cls-9" d="M59.2,48.76c-1.23.44-1.29,1.1-.85,2.07.49,1.09,1.83,2.11,1.72,3.29-.11,1.18-.52,2.3.05,3.31.57,1.01,1.05,1.5,2.22,1.42.86-.06,1.34-.38,1.97-1.15,1.06-1.29,1.42-2.42.95-4.21-.37-1.43-1.13-3.34-2.31-4.32-1.18-.98-2.53-.85-3.76-.42Z"/><path class="cls-9" d="M14.61,52.4c.8,1.04,1.44.89,2.22.17.87-.81,1.42-2.41,2.58-2.67,1.15-.26,2.34-.22,3.11-1.08.78-.86,1.09-1.47.65-2.57-.32-.8-.77-1.16-1.7-1.52-1.55-.61-2.73-.6-4.28.4-1.24.8-2.81,2.12-3.36,3.55-.56,1.43-.02,2.68.78,3.72Z"/><path class="cls-9" d="M6.33,65.36c.8,1.04,1.44.89,2.22.17.87-.81,1.42-2.41,2.58-2.67,1.15-.26,2.34-.22,3.11-1.08.78-.86,1.09-1.47.65-2.57-.32-.8-.77-1.16-1.7-1.52-1.55-.61-2.73-.6-4.28.4-1.24.8-2.81,2.12-3.36,3.55-.56,1.43-.02,2.68.78,3.72Z"/><path class="cls-9" d="M23.53,65.56c.8,1.04,1.44.89,2.22.17.87-.81,1.42-2.41,2.58-2.67,1.15-.26,2.34-.22,3.11-1.08.78-.86,1.09-1.47.65-2.57-.32-.8-.77-1.16-1.7-1.52-1.55-.61-2.73-.6-4.28.4-1.24.8-2.81,2.12-3.36,3.55-.56,1.43-.02,2.68.78,3.72Z"/><path class="cls-4" d="M35.74,63.54c-.55,2.42-.59,4.73.74,6.78,1.49,2.29,3.97,4.09,7.01,4.79,2.82.65,5.6.25,7.84-.93s4.12-3.33,4.72-5.95c.44-1.92.19-3.86-.6-5.61-1.31-2.9-3.49-4.27-7.09-5.1-2.88-.66-5.66-.87-7.94.38s-4.1,3.09-4.68,5.65Z"/><path class="cls-4" d="M40.37,79.23c-.55,2.42-.59,4.73.74,6.78,1.49,2.29,3.97,4.09,7.01,4.79,2.82.65,5.6.25,7.84-.93s4.12-3.33,4.72-5.95c.44-1.92.19-3.86-.6-5.61-1.31-2.9-3.49-4.27-7.09-5.1-2.88-.66-5.66-.87-7.94.38s-4.1,3.09-4.68,5.65Z"/><path class="cls-4" d="M51.95,66.14c-.51,2.24-.6,4.37.43,6.21,1.16,2.07,3.13,3.66,5.6,4.22,2.28.53,4.56.08,6.42-1.06s3.44-3.16,4-5.59c.41-1.78.25-3.56-.35-5.14-1-2.64-2.74-3.84-5.66-4.51-2.33-.54-4.59-.66-6.48.55s-3.42,2.94-3.96,5.32Z"/><path class="cls-3" d="M52.54,65.8c-.77-1.06-1.23,1.34-2.03,2.04-.9.78-2.11,1.67-3.27,1.9-1.16.23-3.63-.24-4.44.6-.8.84-.72.26-.31,1.37.3.81,2.01,1.29,2.97,1.57,1.48.43,2.72.68,4.29-.28,1.26-.77,2.87-2.03,3.46-3.45.6-1.42.1-2.68-.67-3.74Z"/><path class="cls-3" d="M66.57,67.15c-.77-1.06-1.23,1.34-2.03,2.04-.9.78-2.11,1.67-3.27,1.9-1.16.23-3.63-.24-4.44.6-.8.84-.72.26-.31,1.37.3.81,2.01,1.29,2.97,1.57,1.48.43,2.72.68,4.29-.28,1.26-.77,2.87-2.03,3.46-3.45.6-1.42.1-2.68-.67-3.74Z"/><path class="cls-4" d="M11.77,74.87c-.55,2.42-.59,4.73.74,6.78,1.49,2.29,3.97,4.09,7.01,4.79,2.82.65,5.6.25,7.84-.93s4.12-3.33,4.72-5.95c.44-1.92.19-3.86-.6-5.61-1.31-2.9-3.49-4.27-7.09-5.1-2.88-.66-5.66-.87-7.94.38s-4.1,3.09-4.68,5.65Z"/><path class="cls-4" d="M27.75,76.35c-.51,2.24-.6,4.37.43,6.21,1.16,2.07,3.13,3.66,5.6,4.22,2.28.53,4.56.08,6.42-1.06s3.44-3.16,4-5.59c.41-1.78.25-3.56-.35-5.14-1-2.64-2.74-3.84-5.66-4.51-2.33-.54-4.59-.66-6.48.55s-3.42,2.94-3.96,5.32Z"/><path class="cls-4" d="M15.14,89.34c-.51,2.24-.6,4.37.43,6.21,1.16,2.07,3.13,3.66,5.6,4.22,2.28.53,4.56.08,6.42-1.06s3.44-3.16,4-5.59c.41-1.78.25-3.56-.35-5.14-1-2.64-2.74-3.84-5.66-4.51-2.33-.54-4.59-.66-6.48.55s-3.42,2.94-3.96,5.32Z"/><path class="cls-4" d="M25.2,88.87c-.55,2.42-.59,4.73.74,6.78,1.49,2.29,3.97,4.09,7.01,4.79,2.82.65,5.6.25,7.84-.93,2.35-1.24,4.12-3.33,4.72-5.95.44-1.92.19-3.86-.6-5.61-1.31-2.9-3.49-4.27-7.09-5.1-2.88-.66-5.66-.87-7.94.38s-4.1,3.09-4.68,5.65Z"/><path class="cls-4" d="M39.28,94.87c-.55,2.42-.59,4.73.74,6.78,1.49,2.29,3.97,4.09,7.01,4.79,2.82.65,5.6.25,7.84-.93s4.12-3.33,4.72-5.95c.44-1.92.19-3.86-.6-5.61-1.31-2.9-3.49-4.27-7.09-5.1-2.88-.66-5.66-.87-7.94.38s-4.1,3.09-4.68,5.65Z"/><path class="cls-4" d="M19.47,103.53c-.51,2.24-.6,4.37.43,6.21,1.16,2.07,3.13,3.66,5.6,4.22,2.28.53,4.56.08,6.42-1.06s3.44-3.16,4-5.59c.41-1.78.25-3.56-.35-5.14-1-2.64-2.74-3.84-5.66-4.51-2.33-.54-4.59-.66-6.48.55s-3.42,2.94-3.96,5.32Z"/><path class="cls-4" d="M30.44,104.35c-.51,2.24-.6,4.37.43,6.21,1.16,2.07,3.13,3.66,5.6,4.22,2.28.53,4.56.08,6.42-1.06s3.44-3.16,4-5.59c.41-1.78.25-3.56-.35-5.14-1-2.64-2.74-3.84-5.66-4.51-2.33-.54-4.59-.66-6.48.55s-3.42,2.94-3.96,5.32Z"/><path class="cls-8" d="M7.22,62.25c-.33.49-.57,1.2-.1,1.37.53.19.13.06.69.16s1.12-1.12,1.26-1.72c.15-.65,1.6-1.56,2.16-1.47.43.07,1.63-.87,1.36-1.3-.44-.71-1.76-.16-2.61-.16-.68,0-1.82.86-2.22,1.45-.26.38-.17,1.15-.53,1.68Z"/><path class="cls-8" d="M32.73,48.78c-.06.67.1.99.66,1.19.63.22,1.25.07,1.91.19s1.39.1,2.02-.19c.64-.29,1.2-.72,1.46-1.37.19-.48.27-.84-.05-1.33-.53-.81-1.46-1.04-2.47-1.06-.8-.01-1.82.21-2.45.72-.63.5-1.01,1.18-1.08,1.86Z"/><path class="cls-4" d="M23.06,115.72c-.51,2.24-.6,4.37.43,6.21,1.16,2.07,3.13,3.66,5.6,4.22,2.28.53,4.56.08,6.42-1.06s3.44-3.16,4-5.59c.41-1.78.25-3.56-.35-5.14-1-2.64-2.74-3.84-5.66-4.51-2.33-.54-4.59-.66-6.48.55s-3.42,2.94-3.96,5.32Z"/><path class="cls-9" d="M25.97,119.61c.66,1.04,1.06,1.05,1.83.17.77-.88.67-2.12.36-3.33-.15-.59.21-1.17.94-1.4.73-.23,4.21.11,4.19-.97-.02-.79-.25-1.53-1.06-1.91-1.35-.64-2.97-.59-4.6.05-1.3.51-2.74,2.26-2.92,3.79-.18,1.53.59,2.56,1.24,3.59Z"/><path class="cls-3" d="M56.59,96.71c-.77-1.06-1.23,1.34-2.03,2.04-.9.78-2.11,1.67-3.27,1.9-1.16.23-3.63-.24-4.44.6-.8.84-.72.26-.31,1.37.3.81,2.01,1.29,2.97,1.57,1.48.43,2.72.68,4.29-.28,1.26-.77,2.87-2.03,3.46-3.45.6-1.42.1-2.68-.67-3.74Z"/><path class="cls-3" d="M40.6,96.98c-.49-.66-.81.86-1.34,1.31-.59.51-1.39,1.08-2.15,1.24-.76.16-2.36-.11-2.89.43-.53.54-.47.17-.22.87.18.51,1.29.79,1.91.96.96.26,1.75.4,2.79-.23.83-.5,1.88-1.32,2.29-2.23.41-.9.09-1.7-.39-2.36Z"/><path class="cls-3" d="M31.46,103.05c-.77-1.06-1.23,1.34-2.03,2.04-.9.78-2.11,1.67-3.27,1.9-1.16.23-3.63-.24-4.44.6-.8.84-.72.26-.31,1.37.3.81,2.01,1.29,2.97,1.57,1.48.43,2.72.68,4.29-.28,1.26-.77,2.87-2.03,3.46-3.45.6-1.42.1-2.68-.67-3.74Z"/><path class="cls-3" d="M58.09,80.77c-.77-1.06-1.23,1.34-2.03,2.04-.9.78-2.11,1.67-3.27,1.9-1.16.23-3.63-.24-4.44.6-.8.84-.72.26-.31,1.37.3.81,2.01,1.29,2.97,1.57,1.48.43,2.72.68,4.29-.28,1.26-.77,2.87-2.03,3.46-3.45.6-1.42.1-2.68-.67-3.74Z"/><path class="cls-3" d="M28.97,90.35c-.77-1.06-1.23,1.34-2.03,2.04-.9.78-2.11,1.67-3.27,1.9-1.16.23-3.63-.24-4.44.6-.8.84-.72.26-.31,1.37.3.81,2.01,1.29,2.97,1.57,1.48.43,2.72.68,4.29-.28,1.26-.77,2.87-2.03,3.46-3.45.6-1.42.1-2.68-.67-3.74Z"/><path class="cls-3" d="M44.51,105.22c-.77-1.06-1.23,1.34-2.03,2.04-.9.78-2.11,1.67-3.27,1.9-1.16.23-3.63-.24-4.44.6-.8.84-.72.26-.31,1.37.3.81,2.01,1.29,2.97,1.57,1.48.43,2.72.68,4.29-.28,1.26-.77,2.87-2.03,3.46-3.45.6-1.42.1-2.68-.67-3.74Z"/><path class="cls-3" d="M25.95,76.23c-.77-1.06-1.23,1.34-2.03,2.04-.9.78-2.11,1.67-3.27,1.9-1.16.23-3.63-.24-4.44.6-.8.84-.72.26-.31,1.37.3.81,2.01,1.29,2.97,1.57,1.48.43,2.72.68,4.29-.28,1.26-.77,2.87-2.03,3.46-3.45.6-1.42.1-2.68-.67-3.74Z"/><path class="cls-3" d="M35.05,82.64c-.58-.86-.7.92-1.16,1.38-.52.52-1.25,1.1-1.99,1.18-.74.08-2.39-.46-2.85.11-.46.57-.45.14-.1,1.01.26.64,1.41,1.13,2.05,1.42,1,.44,1.82.72,2.77.12.76-.48,1.71-1.31,1.99-2.34.28-1.02-.14-2.02-.73-2.88Z"/><path class="cls-3" d="M44.88,88.18c-.49-.66-.81.86-1.34,1.31-.59.51-1.39,1.08-2.15,1.24-.76.16-2.36-.11-2.89.43-.53.54-.47.17-.22.87.18.51,1.29.79,1.91.96.96.26,1.75.4,2.79-.23.83-.5,1.88-1.32,2.29-2.23.41-.9.09-1.7-.39-2.36Z"/><path class="cls-3" d="M45.97,77.94c-.58-.86-.7.92-1.16,1.38-.52.52-1.25,1.1-1.99,1.18-.74.08-2.39-.46-2.85.11-.46.57-.45.14-.1,1.01.26.64,1.41,1.13,2.05,1.42,1,.44,1.82.72,2.77.12.76-.48,1.71-1.31,1.99-2.34.28-1.02-.14-2.02-.73-2.88Z"/><path class="cls-2" d="M70.15,10.93s-24.74,6.12-24.87,24.66c0,0,3.99,1.34,2.79,3.96s37.87-7.07,38.17-22.71c0,0-9.68-2.61-17.44,3.9,0,0,5.43-9.19,1.35-9.81Z"/><path class="cls-7" d="M59.9,3.62l2.59,3.61s-20.61,12.98-16.76,24.62c0,0-2.32,2.13-5.05,3.89-2.73,1.76,6.4-22.6,19.22-32.13Z"/><path class="cls-2" d="M28.57,7.62s-5.83,22.69,11.78,28.06c0,0,7.53-15.8-11.78-28.06Z"/><path class="cls-5" d="M38.82,35.15s-1.42-5.48-2.32-5.61-5.91-2.7-5.38-3.5c0,0,3.95,3.18,4.85,1.56,0,0-1.58-3.41-2.27-3.57s-4.61-1.67-4.26-2.33c0,0,2.87,2.14,4.15.92,0,0-1.27-8.67-2.87-9.4.7-.62,3.08,5.31,4.27,9.21,0,0,1.92.39,3.3-3.38,0,0-.11,3.25-1.96,3.89s.95,4.53.95,4.53c.11.49,1.02.62,2.57-3.64.02-.09-.22,3.4-1.6,5.41,0,0,1.37,6.72,2.35,5.83l-.25.61-1.52-.53Z"/><path class="cls-5" d="M51.61,32s4.58-12.54,13.57-15.99c0,0-9.55,7.36-12.3,16.29l-1.27-.3Z"/><path class="cls-5" d="M58.06,35.06s21.02-8.74,21.7-13.72c0,0-12.25,9.11-22.58,12.9l.88.82Z"/><path class="cls-5" d="M61.93,32.21s1.58-3.57.06-4.82c0,0,2.82,2.97,1.22,4.19l-1.28.63Z"/><path class="cls-5" d="M69.43,28.15s-1.72-4.16.92-5.99c0,0-1.27,2.1-.33,5.63l-.6.36Z"/><path class="cls-5" d="M74.82,26.46s3.05,1.57,4.14.18c0,0-1.19.53-3.84-.38l-.3.2Z"/><path class="cls-5" d="M52.84,29.19s-3.02-2.65-.85-5.06c0,0,.06,3.44,1.14,4.49l-.28.57Z"/><path class="cls-5" d="M55.35,26.95s4.25,1.03,5.97-1.98c0,0-2.96,1.28-5.67,1.49l-.3.49Z"/><path class="cls-5" d="M56.48,23.18s-1.65-3.1.32-5.29c0,0-.52,4.89.25,4.54l-.57.75Z"/><path class="cls-5" d="M60.7,20.13s2.66-.56,3.2-1.1c0,0-1.79,2.04-4.23,2.2l1.03-1.11Z"/><path class="cls-3" d="M38.07,72.08c-.42-.55-.8.79-1.32,1.2-.58.47-1.35,1.01-2.07,1.18-.71.18-2.19.03-2.72.53-.52.49-.45.17-.25.76.14.43,1.16.61,1.73.72.88.17,1.61.25,2.61-.34.8-.47,1.83-1.24,2.25-2.04.43-.8.18-1.47-.24-2.01Z"/><path class="cls-3" d="M18.75,63.96c-.77-1.06-1.23,1.34-2.03,2.04-.9.78-2.11,1.67-3.27,1.9-1.16.23-3.63-.24-4.44.6-.8.84-.72.26-.31,1.37.3.81,2.01,1.29,2.97,1.57,1.48.43,2.72.68,4.29-.28,1.26-.77,2.87-2.03,3.46-3.45.6-1.42.1-2.68-.67-3.74Z"/><path class="cls-4" d="M39.77,38.21c-.55,2.42-.59,4.73.74,6.78,1.49,2.29,3.97,4.09,7.01,4.79,2.82.65,5.6.25,7.84-.93s4.12-3.33,4.72-5.95c.44-1.92.19-3.86-.6-5.61-1.31-2.9-3.49-4.27-7.09-5.1-2.88-.66-5.66-.87-7.94.38s-4.1,3.09-4.68,5.65Z"/><path class="cls-9" d="M41.78,39.56c-.13,1.35.19,1.98,1.31,2.37,1.25.43,2.49.14,3.81.38s2.78.19,4.05-.38c1.27-.57,2.41-1.43,2.92-2.75.37-.96.54-1.69-.1-2.67-1.05-1.63-2.92-2.08-4.93-2.11-1.61-.02-3.65.43-4.91,1.43-1.26,1.01-2.02,2.37-2.15,3.72Z"/><path class="cls-8" d="M44.26,38.9c-.06.67.1.99.66,1.19.63.22,1.25.07,1.91.19s1.39.1,2.02-.19c.64-.29,1.2-.72,1.46-1.37.19-.48.27-.84-.05-1.33-.53-.81-1.46-1.04-2.47-1.06-.8-.01-1.82.21-2.45.72-.63.5-1.01,1.18-1.08,1.86Z"/><path class="cls-9" d="M16.84,91.96c.69.45.9-.23,1.26-.83.36-.6.57-1.6,1.39-2.06.82-.46,2.3-.93,3.09-1.34s1.57-.23,2.11-.75c.39-.38.32-.47-.5-.84-1.37-.62-3.09-.35-4.59.57-1.2.74-2.72,2.01-3.16,3.14-.44,1.14-.27,1.65.42,2.1Z"/><path class="cls-9" d="M45.77,97.39c.65.47.8-.17,1.09-.73.29-.56.42-1.52,1.14-1.92.72-.4,2.03-.78,2.72-1.13s1.4-.14,1.86-.61c.34-.35.26-.44-.5-.84-1.27-.68-2.81-.51-4.12.3-1.05.65-2.35,1.8-2.69,2.87-.34,1.08-.15,1.59.49,2.06Z"/><path class="cls-9" d="M38.88,78.19c.42.28.54-.13.74-.49.21-.36.32-.97.81-1.25.49-.27,1.37-.55,1.83-.78s.94-.13,1.25-.44c.23-.23.18-.29-.31-.52-.83-.39-1.85-.25-2.75.3-.71.44-1.61,1.2-1.86,1.89-.25.69-.14,1.01.28,1.29Z"/><path class="cls-8" d="M26.13,115.64c-.24.38-.42.93-.09,1.05.37.13.09.04.49.11s.81-.87.91-1.34c.11-.5,1.15-1.22,1.55-1.16.3.05,1.16-.69.98-1.02-.3-.54-1.24-.1-1.84-.09-.48,0-1.3.69-1.59,1.14-.19.29-.14.88-.4,1.29Z"/><path class="cls-8" d="M61.82,50.36c-.32-.5-.88-1-1.21-.63-.38.41-.1.1-.41.58s.58,1.47,1.08,1.84c.54.39.81,2.09.5,2.57-.23.37.16,1.85.66,1.77.82-.13.84-1.57,1.17-2.35.27-.63-.08-2.02-.46-2.62-.24-.39-.98-.61-1.33-1.15Z"/><path class="cls-9" d="M40.17,66.48c.79,1.01,1.45.85,2.25.12.9-.82,1.49-2.42,2.67-2.7,1.18-.28,2.38-.27,3.19-1.14.81-.87,1.14-1.48.72-2.56-.31-.79-.76-1.13-1.7-1.47-1.56-.57-2.76-.54-4.35.49-1.27.82-2.89,2.16-3.49,3.59-.6,1.43-.07,2.66.71,3.67Z"/><path class="cls-8" d="M43.08,61.97c.07.41.26.58.73.61.53.04.98-.14,1.52-.17s1.1-.15,1.54-.41c.44-.26.81-.61.88-1.04.06-.32.05-.54-.28-.79-.56-.41-1.33-.41-2.12-.27-.63.11-1.38.4-1.78.79-.4.39-.57.86-.5,1.27Z"/><path class="cls-8" d="M33.1,95.8c.07.41.26.58.73.61.53.04.98-.14,1.52-.17s1.1-.15,1.54-.41c.44-.26.81-.61.88-1.04.06-.32.05-.54-.28-.79-.56-.41-1.33-.41-2.12-.27-.63.11-1.38.4-1.78.79-.4.39-.57.86-.5,1.27Z"/><path class="cls-5" d="M65.53,31.64s1.94,2.71,4.41.66c0,0-2.47,1-3.47-1.12l-.94.47Z"/></svg>