<?xml version="1.0" encoding="UTF-8"?><svg id="Layer_2" xmlns="http://www.w3.org/2000/svg" width="90" height="130" viewBox="0 0 90 130"><defs><style>.cls-1{fill:#662d91;}.cls-2{fill:#107623;}.cls-3{fill:#6c1076;}.cls-4,.cls-5{fill:#c388e8;}.cls-5{stroke:#c388e8;stroke-miterlimit:10;}.cls-6{fill:#39b54a;}.cls-7{fill:#754c24;}.cls-8{fill:#f2f2f2;}</style></defs><path class="cls-3" d="M12.22,59.09c1.16,2.39,2.69,4.35,5.23,5.19,2.84.94,6.2.8,9.32-.62,2.88-1.31,5.02-3.49,6.17-5.95s1.32-5.5.07-8.09c-.92-1.9-2.45-3.36-4.31-4.3-3.1-1.56-5.92-1.27-9.61.41-2.95,1.35-5.5,3.01-6.63,5.55s-1.47,5.29-.24,7.82Z"/><path class="cls-4" d="M14.88,58.9c.8,1.21,1.51,1.53,2.74,1.12,1.38-.46,2.25-1.53,3.56-2.19s2.54-1.67,3.26-2.99c.71-1.32,1.12-2.79.67-4.22-.33-1.05-.68-1.77-1.89-2.17-2.02-.67-3.94.19-5.71,1.49-1.41,1.04-2.88,2.76-3.29,4.44-.41,1.67-.15,3.31.65,4.53Z"/><path class="cls-8" d="M16.59,56.71c.4.61.75.77,1.37.56.69-.23,1.13-.76,1.78-1.1s1.27-.83,1.63-1.49c.36-.66.56-1.39.34-2.11-.16-.53-.34-.88-.94-1.08-1.01-.33-1.97.09-2.85.74-.71.52-1.44,1.38-1.64,2.22-.21.84-.08,1.66.32,2.26Z"/><path class="cls-3" d="M28.04,65.53c1.16,2.39,2.69,4.35,5.23,5.19,2.84.94,6.2.8,9.32-.62,2.88-1.31,5.02-3.49,6.17-5.95s1.32-5.5.07-8.09c-.92-1.9-2.45-3.36-4.31-4.3-3.1-1.56-5.92-1.27-9.61.41-2.95,1.35-5.5,3.01-6.63,5.55s-1.47,5.29-.24,7.82Z"/><path class="cls-3" d="M13.11,75.75c1.16,2.39,2.69,4.35,5.23,5.19,2.84.94,6.2.8,9.32-.62,2.88-1.31,5.02-3.49,6.17-5.95,1.21-2.59,1.32-5.5.07-8.09-.92-1.9-2.45-3.36-4.31-4.3-3.1-1.56-5.92-1.27-9.61.41-2.95,1.35-5.5,3.01-6.63,5.55-1.13,2.54-1.47,5.29-.24,7.82Z"/><path class="cls-4" d="M30.08,64.97c.8,1.21,1.51,1.53,2.74,1.12,1.38-.46,2.25-1.53,3.56-2.19s2.54-1.67,3.26-2.99c.71-1.32,1.12-2.79.67-4.22-.33-1.05-.68-1.77-1.89-2.17-2.02-.67-3.94.19-5.71,1.49-1.41,1.04-2.88,2.76-3.29,4.44-.41,1.67-.15,3.31.65,4.53Z"/><path class="cls-3" d="M45.57,56.25c1.16,2.39,2.69,4.35,5.23,5.19,2.84.94,6.2.8,9.32-.62,2.88-1.31,5.02-3.49,6.17-5.95s1.32-5.5.07-8.09c-.92-1.9-2.45-3.36-4.31-4.3-3.1-1.56-5.92-1.27-9.61.41-2.95,1.35-5.5,3.01-6.63,5.55s-1.47,5.29-.24,7.82Z"/><path class="cls-3" d="M15.26,91.51c1.16,2.39,2.69,4.35,5.23,5.19,2.84.94,6.2.8,9.32-.62,2.88-1.31,5.02-3.49,6.17-5.95s1.32-5.5.07-8.09c-.92-1.9-2.45-3.36-4.31-4.3-3.1-1.56-5.92-1.27-9.61.41-2.95,1.35-5.5,3.01-6.63,5.55s-1.47,5.29-.24,7.82Z"/><path class="cls-3" d="M31.85,80.8c1.07,2.21,2.43,4.05,4.58,4.91,2.4.97,5.19.99,7.71-.16,2.33-1.06,4.01-2.94,4.85-5.12.88-2.29.85-4.92-.32-7.31-.85-1.76-2.19-3.14-3.78-4.07-2.65-1.55-4.97-1.41-7.96-.04-2.39,1.09-4.43,2.48-5.25,4.73s-.97,4.72.16,7.06Z"/><path class="cls-4" d="M54.41,44.52c-.77,1.18-.38,1.77.66,2.29,1.16.58,3.02.56,3.72,1.62.7,1.06,1.11,2.27,2.29,2.74,1.18.47,1.92.56,2.89-.27.71-.61.9-1.2.93-2.26.04-1.77-.41-2.96-2.02-4.15-1.29-.95-3.24-2.05-4.92-2.09-1.69-.04-2.77.95-3.54,2.13Z"/><path class="cls-4" d="M18.19,76.97c1.4.34,1.86-.21,2.04-1.32.21-1.25-.4-2.95.43-3.93.82-.98,1.88-1.73,1.97-2.96.09-1.23-.05-1.95-1.17-2.58-.82-.46-1.45-.46-2.51-.15-1.75.51-2.78,1.3-3.44,3.16-.53,1.49-1,3.62-.52,5.19.49,1.57,1.8,2.25,3.19,2.6Z"/><path class="cls-4" d="M19.77,93.27c1.4.34,1.86-.21,2.04-1.32.21-1.25-.4-2.95.43-3.93.82-.98,1.88-1.73,1.97-2.96.09-1.23-.05-1.95-1.17-2.58-.82-.46-1.45-.46-2.51-.15-1.75.51-2.78,1.3-3.44,3.16-.53,1.49-1,3.62-.52,5.19.49,1.57,1.8,2.25,3.19,2.6Z"/><path class="cls-5" d="M34.82,82.1c1.4.34,1.86-.21,2.04-1.32.21-1.25-.4-2.95.43-3.93.82-.98,1.88-1.73,1.97-2.96.09-1.23-.05-1.95-1.17-2.58-.82-.46-1.45-.46-2.51-.15-1.75.51-2.78,1.3-3.44,3.16-.53,1.49-1,3.62-.52,5.19.49,1.57,1.8,2.25,3.19,2.6Z"/><path class="cls-3" d="M44.04,72.36c1.16,2.39,2.69,4.35,5.23,5.19,2.84.94,6.2.8,9.32-.62,2.88-1.31,5.02-3.49,6.17-5.95s1.32-5.5.07-8.09c-.92-1.9-2.45-3.36-4.31-4.3-3.1-1.56-5.92-1.27-9.61.41-2.95,1.35-5.5,3.01-6.63,5.55-1.13,2.54-1.47,5.29-.24,7.82Z"/><path class="cls-3" d="M58.68,82.42c1.16,2.39,2.69,4.35,5.23,5.19,2.84.94,6.2.8,9.32-.62,2.88-1.31,5.02-3.49,6.17-5.95s1.32-5.5.07-8.09c-.92-1.9-2.45-3.36-4.31-4.3-3.1-1.56-5.92-1.27-9.61.41-2.95,1.35-5.5,3.01-6.63,5.55s-1.47,5.29-.24,7.82Z"/><path class="cls-3" d="M59.88,63.84c1.07,2.21,2.43,4.05,4.58,4.91,2.4.97,5.19.99,7.71-.16,2.33-1.06,4.01-2.94,4.85-5.12.88-2.29.85-4.92-.32-7.31-.85-1.76-2.19-3.14-3.78-4.07-2.65-1.55-4.97-1.41-7.96-.04-2.39,1.09-4.43,2.48-5.25,4.73-.82,2.25-.97,4.72.16,7.06Z"/><path class="cls-1" d="M60.15,63.16c-1.38-.38-.16,1.93-.38,3.04-.25,1.25-.7,2.79-1.56,3.75-.85.95-3.31,2.2-3.44,3.43-.13,1.23-.45.69.65,1.35.81.48,2.61-.25,3.63-.64,1.58-.61,2.81-1.22,3.53-3.06.57-1.47,1.11-3.59.67-5.17-.44-1.58-1.73-2.3-3.11-2.69Z"/><path class="cls-1" d="M73.24,55.05c-1.38-.38-.16,1.93-.38,3.04-.25,1.25-.7,2.79-1.56,3.75-.85.95-3.31,2.2-3.44,3.43-.13,1.23-.45.69.65,1.35.81.48,2.61-.25,3.63-.64,1.58-.61,2.81-1.22,3.53-3.06.57-1.47,1.11-3.59.67-5.17-.44-1.58-1.73-2.3-3.11-2.69Z"/><path class="cls-3" d="M30.93,97.64c1.16,2.39,2.69,4.35,5.23,5.19,2.84.94,6.2.8,9.32-.62,2.88-1.31,5.02-3.49,6.17-5.95s1.32-5.5.07-8.09c-.92-1.9-2.45-3.36-4.31-4.3-3.1-1.56-5.92-1.27-9.61.41-2.95,1.35-5.5,3.01-6.63,5.55s-1.47,5.29-.24,7.82Z"/><path class="cls-3" d="M45.79,88.34c1.07,2.21,2.43,4.05,4.58,4.91,2.4.97,5.19.99,7.71-.16,2.33-1.06,4.01-2.94,4.85-5.12s.85-4.92-.32-7.31c-.85-1.76-2.19-3.14-3.78-4.07-2.65-1.55-4.97-1.41-7.96-.04-2.39,1.09-4.43,2.48-5.25,4.73s-.97,4.72.16,7.06Z"/><path class="cls-3" d="M43.64,107.52c1.07,2.21,2.43,4.05,4.58,4.91,2.4.97,5.19.99,7.71-.16,2.33-1.06,4.01-2.94,4.85-5.12s.85-4.92-.32-7.31c-.85-1.76-2.19-3.14-3.78-4.07-2.65-1.55-4.97-1.41-7.96-.04-2.39,1.09-4.43,2.48-5.25,4.73s-.97,4.72.16,7.06Z"/><path class="cls-3" d="M52.04,100.5c1.16,2.39,2.69,4.35,5.23,5.19,2.84.94,6.2.8,9.32-.62,2.88-1.31,5.02-3.49,6.17-5.95s1.32-5.5.07-8.09c-.92-1.9-2.45-3.36-4.31-4.3-3.1-1.56-5.92-1.27-9.61.41-2.95,1.35-5.5,3.01-6.63,5.55s-1.47,5.29-.24,7.82Z"/><path class="cls-3" d="M68.32,96.23c1.16,2.39,2.69,4.35,5.23,5.19,2.84.94,6.2.8,9.32-.62,2.88-1.31,5.02-3.49,6.17-5.95,1.21-2.59,1.32-5.5.07-8.09-.92-1.9-2.45-3.36-4.31-4.3-3.1-1.56-5.92-1.27-9.61.41-2.95,1.35-5.5,3.01-6.63,5.55s-1.47,5.29-.24,7.82Z"/><path class="cls-3" d="M56.98,116.54c1.07,2.21,2.43,4.05,4.58,4.91,2.4.97,5.19.99,7.71-.16,2.33-1.06,4.01-2.94,4.85-5.12s.85-4.92-.32-7.31c-.85-1.76-2.19-3.14-3.78-4.07-2.65-1.55-4.97-1.41-7.96-.04-2.39,1.09-4.43,2.48-5.25,4.73s-.97,4.72.16,7.06Z"/><path class="cls-3" d="M67.06,109.99c1.07,2.21,2.43,4.05,4.58,4.91,2.4.97,5.19.99,7.71-.16,2.33-1.06,4.01-2.94,4.85-5.12s.85-4.92-.32-7.31c-.85-1.76-2.19-3.14-3.78-4.07-2.65-1.55-4.97-1.41-7.96-.04-2.39,1.09-4.43,2.48-5.25,4.73s-.97,4.72.16,7.06Z"/><path class="cls-8" d="M18.47,90.11c.05.63.33,1.38.85,1.2.58-.2.15-.04.7-.33s.19-1.67-.11-2.27c-.32-.64.3-2.36.84-2.66.41-.23.8-1.81.28-1.99-.87-.3-1.62,1.05-2.36,1.62-.58.45-.97,1.93-.91,2.69.04.49.64,1.06.7,1.75Z"/><path class="cls-8" d="M31.46,62c.4.61.75.77,1.37.56.69-.23,1.13-.76,1.78-1.1s1.27-.83,1.63-1.49c.36-.66.56-1.39.34-2.11-.16-.53-.34-.88-.94-1.08-1.01-.33-1.97.09-2.85.74-.71.52-1.44,1.38-1.64,2.22-.21.84-.08,1.66.32,2.26Z"/><path class="cls-3" d="M68.35,124.37c1.07,2.21,2.43,4.05,4.58,4.91,2.4.97,5.19.99,7.71-.16,2.33-1.06,4.01-2.94,4.85-5.12s.85-4.92-.32-7.31c-.85-1.76-2.19-3.14-3.78-4.07-2.65-1.55-4.97-1.41-7.96-.04-2.39,1.09-4.43,2.48-5.25,4.73s-.97,4.72.16,7.06Z"/><path class="cls-4" d="M73.5,125.7c1.27.43,1.63.18,1.7-1.07.07-1.25-.85-2.21-1.94-3.02-.53-.39-.61-1.11-.12-1.79.48-.68,3.73-2.69,2.98-3.57-.55-.65-1.25-1.11-2.21-.9-1.61.35-2.97,1.47-3.95,3.08-.79,1.29-.85,3.7.03,5.09.88,1.4,2.24,1.75,3.51,2.19Z"/><path class="cls-1" d="M84.57,86.35c-1.38-.38-.16,1.93-.38,3.04-.25,1.25-.7,2.79-1.56,3.75-.85.95-3.31,2.2-3.44,3.43-.13,1.23-.45.69.65,1.35.81.48,2.61-.25,3.63-.64,1.58-.61,2.81-1.22,3.53-3.06.57-1.47,1.11-3.59.67-5.17-.44-1.58-1.73-2.3-3.11-2.69Z"/><path class="cls-1" d="M70.89,97.12c-.87-.23-.12,1.26-.27,1.98-.17.81-.47,1.82-1.02,2.45-.55.63-2.12,1.47-2.21,2.27-.1.8-.29.45.4.87.5.31,1.65-.19,2.3-.46,1-.42,1.79-.83,2.26-2.03.38-.96.74-2.35.48-3.37-.26-1.02-1.07-1.48-1.94-1.72Z"/><path class="cls-1" d="M67.06,108.23c-1.38-.38-.16,1.93-.38,3.04-.25,1.25-.7,2.79-1.56,3.75-.85.95-3.31,2.2-3.44,3.43-.13,1.23-.45.69.65,1.35.81.48,2.61-.25,3.63-.64,1.58-.61,2.81-1.22,3.53-3.06.57-1.47,1.11-3.59.67-5.17-.44-1.58-1.73-2.3-3.11-2.69Z"/><path class="cls-1" d="M75.09,72.03c-1.38-.38-.16,1.93-.38,3.04-.25,1.25-.7,2.79-1.56,3.75-.85.95-3.31,2.2-3.44,3.43-.13,1.23-.45.69.65,1.35.81.48,2.61-.25,3.63-.64,1.58-.61,2.81-1.22,3.53-3.06.57-1.47,1.11-3.59.67-5.17-.44-1.58-1.73-2.3-3.11-2.69Z"/><path class="cls-1" d="M56.31,99.24c-1.38-.38-.16,1.93-.38,3.04-.25,1.25-.7,2.79-1.56,3.75-.85.95-3.31,2.2-3.44,3.43-.13,1.23-.45.69.65,1.35.81.48,2.61-.25,3.63-.64,1.58-.61,2.81-1.22,3.53-3.06.57-1.47,1.11-3.59.67-5.17-.44-1.58-1.73-2.3-3.11-2.69Z"/><path class="cls-1" d="M79.85,101.43c-1.38-.38-.16,1.93-.38,3.04-.25,1.25-.7,2.79-1.56,3.75-.85.95-3.31,2.2-3.44,3.43-.13,1.23-.45.69.65,1.35.81.48,2.61-.25,3.63-.64,1.58-.61,2.81-1.22,3.53-3.06.57-1.47,1.11-3.59.67-5.17-.44-1.58-1.73-2.3-3.11-2.69Z"/><path class="cls-1" d="M44.15,89.43c-1.38-.38-.16,1.93-.38,3.04-.25,1.25-.7,2.79-1.56,3.75-.85.95-3.31,2.2-3.44,3.43-.13,1.23-.45.69.65,1.35.81.48,2.61-.25,3.63-.64,1.58-.61,2.81-1.22,3.53-3.06.57-1.47,1.11-3.59.67-5.17-.44-1.58-1.73-2.3-3.11-2.69Z"/><path class="cls-1" d="M56.37,88.78c-1.09-.34.02,1.22-.08,1.92-.1.78-.34,1.74-.93,2.3-.59.55-2.38,1.19-2.4,1.97-.01.78-.29.41.6.91.65.36,1.99.02,2.74-.17,1.17-.29,2.07-.6,2.49-1.73.34-.9.6-2.23.15-3.27-.45-1.04-1.49-1.59-2.58-1.93Z"/><path class="cls-1" d="M68.64,86.94c-.87-.23-.12,1.26-.27,1.98-.17.81-.47,1.82-1.02,2.45-.55.63-2.12,1.47-2.21,2.27-.1.8-.29.45.4.87.5.31,1.65-.19,2.3-.46,1-.42,1.79-.83,2.26-2.03.38-.96.74-2.35.48-3.37-.26-1.02-1.07-1.48-1.94-1.72Z"/><path class="cls-1" d="M62.67,77.65c-1.09-.34.02,1.22-.08,1.92-.1.78-.34,1.74-.93,2.3-.59.55-2.38,1.19-2.4,1.97-.01.78-.29.41.6.91.65.36,1.99.02,2.74-.17,1.17-.29,2.07-.6,2.49-1.73.34-.9.6-2.23.15-3.27-.45-1.04-1.49-1.59-2.58-1.93Z"/><path class="cls-2" d="M38.31,5.66s-17.32,21.44-4.89,37.02c0,0,4.37-1.51,5.1,1.48.73,2.98,28.07-30.88,17.75-44.16,0,0-10.16,4.2-12.49,14.76,0,0-1.51-11.26-5.47-9.1Z"/><path class="cls-7" d="M24.47,6.31l4.69,1.31s-9.09,24.45,2.12,31.65c0,0-.57,3.32-1.75,6.59-1.18,3.27-9.74-23.12-5.06-39.55Z"/><path class="cls-2" d="M0,30.31s10.3,22.82,29.2,15.71c0,0-4.15-18.18-29.2-15.71Z"/><path class="cls-6" d="M27.52,46.58s-4.94-3.65-5.81-3.17-6.96,1.64-7.03.62c0,0,5.58.06,5.26-1.89,0,0-3.67-1.81-4.39-1.48s-5.13,1.65-5.27.86c0,0,3.94-.1,4.22-1.96,0,0-6.97-6.42-8.84-5.97.19-.98,6.27,2.41,9.93,4.88,0,0,1.93-.94.58-5,0,0,2.1,2.79.93,4.55s3.89,3.16,3.89,3.16c.43.33,1.3-.16-.24-4.74-.04-.09,2.11,2.99,2.27,5.58,0,0,5.74,4.72,5.98,3.32l.19.67-1.68.56Z"/><path class="cls-6" d="M36.48,35.51s-4.52-13.51.95-22.32c0,0-3.31,12.45.35,21.73l-1.3.59Z"/><path class="cls-6" d="M44.14,33.82s12.32-21.17,9.54-25.79c0,0-4.46,15.7-10.86,25.68l1.32.11Z"/><path class="cls-6" d="M45.58,28.88s-1.04-4.03-3.2-4.07c0,0,4.45.62,3.89,2.7l-.69,1.37Z"/><path class="cls-6" d="M49.33,20.54s-4.31-2.34-3.25-5.62c0,0,.32,2.6,3.52,4.92l-.28.69Z"/><path class="cls-6" d="M52.87,15.57s3.7-.7,3.71-2.58c0,0-.67,1.23-3.59,2.21l-.12.37Z"/><path class="cls-6" d="M35.65,32.35s-4.42-.22-4.16-3.67c0,0,2.38,2.83,4.02,3.01l.14.66Z"/><path class="cls-6" d="M36.31,28.82s4.38-1.94,3.84-5.59c0,0-1.7,3.02-3.91,4.98l.07.61Z"/><path class="cls-6" d="M34.74,24.92s-3.53-1.5-3.3-4.63c0,0,2.86,4.44,3.29,3.63v1Z"/><path class="cls-6" d="M36.33,19.59s1.92-2.22,2.04-3.03c0,0-.17,2.89-2.18,4.64l.15-1.61Z"/><path class="cls-1" d="M51.85,77.96c-.73-.18-.16,1.19-.33,1.88-.18.77-.49,1.74-.99,2.35-.5.62-1.88,1.47-2,2.23-.12.76-.27.44.3.8.42.27,1.42-.25,1.99-.53.88-.44,1.57-.86,2.03-2.01.37-.92.75-2.24.57-3.19-.17-.95-.84-1.34-1.57-1.52Z"/><path class="cls-1" d="M29.6,83.92c-1.38-.38-.16,1.93-.38,3.04-.25,1.25-.7,2.79-1.56,3.75-.85.95-3.31,2.2-3.44,3.43-.13,1.23-.45.69.65,1.35.81.48,2.61-.25,3.63-.64,1.58-.61,2.81-1.22,3.53-3.06.57-1.47,1.11-3.59.67-5.17-.44-1.58-1.73-2.3-3.11-2.69Z"/><path class="cls-3" d="M30.41,48.51c1.16,2.39,2.69,4.35,5.23,5.19,2.84.94,6.2.8,9.32-.62,2.88-1.31,5.02-3.49,6.17-5.95,1.21-2.59,1.32-5.5.07-8.09-.92-1.9-2.45-3.36-4.31-4.3-3.1-1.56-5.92-1.27-9.61.41-2.95,1.35-5.5,3.01-6.63,5.55s-1.47,5.29-.24,7.82Z"/><path class="cls-4" d="M33.07,48.32c.8,1.21,1.51,1.53,2.74,1.12,1.38-.46,2.25-1.53,3.56-2.19s2.54-1.67,3.26-2.99c.71-1.32,1.12-2.79.67-4.22-.33-1.05-.68-1.77-1.89-2.17-2.02-.67-3.94.19-5.71,1.49-1.41,1.04-2.88,2.76-3.29,4.44-.41,1.67-.15,3.31.65,4.53Z"/><path class="cls-8" d="M34.77,46.13c.4.61.75.77,1.37.56.69-.23,1.13-.76,1.78-1.1s1.27-.83,1.63-1.49c.36-.66.56-1.39.34-2.11-.16-.53-.34-.88-.94-1.08-1.01-.33-1.97.09-2.85.74-.71.52-1.44,1.38-1.64,2.22-.21.84-.08,1.66.32,2.26Z"/><path class="cls-4" d="M46.88,108.59c.9-.08.62-.79.53-1.52-.09-.73-.59-1.71-.19-2.64.4-.93,1.36-2.3,1.77-3.15s1.2-1.23,1.32-2.02c.09-.58-.04-.6-1.01-.37-1.61.38-2.91,1.75-3.59,3.51-.54,1.41-1,3.47-.61,4.71.38,1.24.88,1.56,1.79,1.48Z"/><path class="cls-4" d="M75.65,94.06c.88-.03.58-.67.45-1.33-.13-.66-.66-1.55-.31-2.36.35-.81,1.23-1.99,1.6-2.73s1.12-1.04,1.2-1.74c.06-.51-.07-.54-1.01-.37-1.56.27-2.78,1.43-3.37,2.97-.47,1.23-.82,3.05-.39,4.17.43,1.12.94,1.43,1.82,1.4Z"/><path class="cls-4" d="M56.68,82.54c.55-.04.38-.46.31-.9-.06-.44-.38-1.03-.14-1.58.24-.55.82-1.36,1.06-1.87s.73-.72.79-1.19c.05-.34-.03-.36-.62-.23-.98.22-1.78,1.02-2.18,2.06-.32.84-.58,2.06-.33,2.81.25.74.56.94,1.11.9Z"/><path class="cls-8" d="M70.97,122.27c.05.48.26,1.06.63.94.41-.13.11-.03.5-.23s.11-1.26-.11-1.72c-.24-.49.17-1.78.56-1.99.29-.16.54-1.34.17-1.5-.62-.25-1.15.74-1.66,1.14-.41.32-.66,1.43-.61,2,.03.37.48.83.53,1.35Z"/><path class="cls-8" d="M57.75,44.13c-.62-.21-1.44-.26-1.48.27-.05.59-.02.15.03.76s1.5.85,2.18.82c.73-.03,2.11,1.22,2.17,1.82.05.46,1.39,1.44,1.77,1.05.63-.65-.34-1.86-.58-2.74-.19-.7-1.43-1.64-2.17-1.89-.47-.16-1.26.14-1.93-.09Z"/><path class="cls-4" d="M49.88,71.9c1.37.33,1.83-.24,2.04-1.38.23-1.28-.34-3.01.49-4.02.83-1.01,1.88-1.79,1.99-3.05.11-1.26-.01-1.99-1.11-2.61-.8-.46-1.43-.45-2.47-.11-1.74.55-2.76,1.37-3.45,3.28-.55,1.53-1.05,3.71-.6,5.3.45,1.59,1.73,2.27,3.1,2.6Z"/><path class="cls-8" d="M49.35,66.2c.34.3.62.31,1.05.03.48-.32.76-.77,1.21-1.14s.86-.85,1.06-1.36c.2-.51.29-1.04.07-1.45-.16-.3-.32-.49-.78-.47-.76.03-1.43.54-2.02,1.17-.47.51-.93,1.24-1.01,1.84-.08.59.08,1.09.43,1.39Z"/><path class="cls-8" d="M63.58,101.08c.34.3.62.31,1.05.03.48-.32.76-.77,1.21-1.14s.86-.85,1.06-1.36c.2-.51.29-1.04.07-1.45-.16-.3-.32-.49-.78-.47-.76.03-1.43.54-2.02,1.17-.47.51-.93,1.24-1.01,1.84-.08.59.08,1.09.43,1.39Z"/><path class="cls-6" d="M48.32,26.03s3.52.98,4.27-2.36c0,0-1.47,2.46-3.77,1.35l-.5,1.01Z"/></svg>