<?xml version="1.0" encoding="UTF-8"?><svg id="Layer_2" xmlns="http://www.w3.org/2000/svg" width="240" height="630" viewBox="0 0 240 630"><defs><style>.cls-1,.cls-2,.cls-3,.cls-4,.cls-5,.cls-6,.cls-7,.cls-8,.cls-9,.cls-10{stroke-linecap:round;}.cls-1,.cls-3,.cls-4,.cls-11,.cls-12,.cls-7,.cls-13,.cls-14,.cls-15{stroke-width:.5px;}.cls-1,.cls-4,.cls-11,.cls-12,.cls-16,.cls-13,.cls-14,.cls-17,.cls-18,.cls-19,.cls-15{stroke:#000;}.cls-1,.cls-4,.cls-11,.cls-12,.cls-16,.cls-13,.cls-14,.cls-17,.cls-18,.cls-15{stroke-miterlimit:10;}.cls-1,.cls-6,.cls-14,.cls-8,.cls-17{fill:none;}.cls-2,.cls-3,.cls-4,.cls-5,.cls-20,.cls-7,.cls-16,.cls-13,.cls-21{fill:#fff;}.cls-2,.cls-3,.cls-5,.cls-6,.cls-7,.cls-8,.cls-9,.cls-10{stroke-linejoin:bevel;}.cls-2,.cls-7,.cls-10{stroke:#b3b3b3;}.cls-3,.cls-5,.cls-9{stroke:#999;}.cls-22,.cls-15{fill:#4d4d4d;}.cls-12,.cls-23{fill:#971c28;}.cls-6,.cls-16{stroke-width:.25px;}.cls-6,.cls-21{stroke:#fff;}.cls-24{fill:#c49c75;}.cls-8{stroke:gray;}.cls-21,.cls-19{stroke-linejoin:round;}</style></defs><path class="cls-24" d="M83.75,50.53s14.25,11.56-4.07,35.33l-2.72,11.89s-6.79,30.38-4.07,35.99c0,0-22.74,23.11-11.88,35.66,0,0,24.98,37.01,34.82,36.68,0,0,54.1,30.02,101.28-10.27,0,0,21.72-30.05,15.61-46.23,0,0-3.94-31.7,1.08-38.3,0,0-16.36-14.2-18.05-21.46s-23.08-36.98-23.08-36.98c0,0-62.45,15.85-88.92-2.31Z"/><path class="cls-24" d="M72.51,135.43s-9.37-1.01-4.63-20.55c0,0-19.78-24.51,6.66-20.58.69.1,2.1,1.28,2.1,1.89,0,6.74-.4,39.98-4.13,39.24Z"/><path class="cls-24" d="M223.81,98.66s24.21,7.41,6.19,19.88c0,0-2.15,23.13-18.42,30.15,0,0-4.44-33.92,0-37.82,0,0,8.2-1.88,12.24-12.22Z"/><path class="cls-18" d="M176.96,51.48s-65.15,18.91-92.36,0c3.92-1.9,15.04,45.17-22.67,38.98-34.83-5.72.3-60.69,10.98-65.96,13.84-6.84,38.04-25.38,71.12-17.07,31.85,8,46.3,18.91,46.3,18.91,0,0,10.5,14.3-13.36,25.14Z"/><path class="cls-19" d="M170.77,54.25s14.6,18.32,18.7,31.2c4.1,12.87,24.6,31.69,24.6,31.69,0,0,38.69-32.06-2.31-78.49,0,0-20.5-16.22-31.26-14.24-10.76,1.98,25.62,7.68-9.74,29.83Z"/><path class="cls-21" d="M60.96,49.95s-10.95,22.69,6.63,33.69c15.06,9.43-33.88.97-6.63-33.69Z"/><path class="cls-21" d="M202.15,49.95s20.88,39.93,12.01,52.92c0,0,23.38-34.27-12.01-52.92Z"/><path class="cls-18" d="M89.03,82.53s-1.12,6.63,13.57,0c0,0,31.2-.54,27.99-9.87s-26.73-3.52-26.73-3.52c0,0-13.57,7.84-14.83,13.39Z"/><path class="cls-18" d="M160.96,79.94s21.52,12.73,28.98,5.09c4.35-4.45-2.55-10.27-9.07-14.35-4.67-2.93-9.15-4.96-9.15-4.96,0,0-18.22-2.33-20.64,4.46-2.42,6.79,0,10.82,9.88,9.76Z"/><path class="cls-6" d="M181.26,70.23s18.93,8.64,8,16.07"/><path class="cls-3" d="M167.9,146.32s-25.97.73-24.79-16.22c1.18-16.95,11.57-41.4,21.96-42.12,10.39-.73,15.82,10.17,15.82,10.17,0,0,6.61,35.83-12.99,48.17Z"/><path class="cls-9" d="M167.96,145.85s-14.66-4.05-9.72-18.64c4.93-14.59,11.13-13.44,11.13-13.44,0,0,8.6,1.01,9.3,10.11.7,9.1-7.06,23.58-10.71,21.96Z"/><path class="cls-5" d="M165.15,124.81s6.69-.79,6.06-5.8c-.63-5.01-5.61,2.55-5.61,2.55,0,0-1.73,3.51-.45,3.25Z"/><path class="cls-7" d="M109.99,141.52s15.11-34.17,10.32-41.64c-4.79-7.47-6.08-19.4-18.61-12.81,0,0-14.37,11.39-12.53,41.46,0,0,.18,12.28,20.82,12.99Z"/><path class="cls-10" d="M109.9,141.34s-26.03-6.53-6.53-30.66c0,0,16.35-5.44,13.79,12.52,0,0-5.99,20.44-7.26,18.14Z"/><path class="cls-2" d="M102.13,120.79s7.14-.79,6.46-5.82-5.98,2.56-5.98,2.56c0,0-1.85,3.53-.48,3.26Z"/><path class="cls-17" d="M135.13,128.69s1.09,7.02-15.76,18.6c0,0-7.79,8.81,7.89,15.01,0,0,13.34,5.55,12.09-10.12"/><path class="cls-15" d="M168.79,173.33s-42.7,51.67-75.95-8.31c0,0,13.79-5.95,34.73,4.05,0,0,33.91-4.32,41.22,4.27Z"/><path class="cls-13" d="M104.87,160.71l-.48,7.2s23.82,20.88,48.76,7l.33-4.93s-26.98,6.14-48.61-9.28Z"/><path class="cls-18" d="M127.96,161.32s44.75-12.26,52.16,0c0,0,3.11,7.4,18.66,5.78,0,0-1.67,21.27-44.03,1.85,0,0-11.1,7.9-28.56,2.82,0,0-8.42-8.09-19.93-6.98-11.51,1.11-21.88,4.29-31.91-2.23-10.03-6.52-11.18-3.34-16.28-11.6,0,0,26.65,5.56,30.59-1.43s39.3,11.79,39.3,11.79Z"/><path class="cls-12" d="M145.56,190.11s-8.25-7.11-16.48-1.36c-8.22,5.75,10.74,7.28,16.48,1.36Z"/><path class="cls-12" d="M112.3,188.12s9.11-4.36,15.41.63c1.45,1.15,2.1,2.8,3.11,5.12,0,0-9.26,0-18.52-5.75Z"/><path class="cls-20" d="M110.46,321.63l6.28-47.66s-1.68-14.05-7.43-39.22l5.15,10.24s10.36-13.76,8.85-16.26,5.43,12.1,2.81,19.81c0,0,11.57-2.67,20.81-11.77l-30.18,37.21"/><path class="cls-22" d="M104.11,222.68s-27.79-.67-30.54,22.85-3.93,44-3.53,49.31-.07,24.28-.07,24.28l8.71,20.48s32.58-14.41,31.79-18.97,6.28-46.66,6.28-46.66c0,0-7.69-51.65-12.64-51.3Z"/><path class="cls-22" d="M159.32,222.6l-17.99,20.65-24.59,30.72-7.43,46.59,25.06,23.2s8.14-15.03,8.67-17.69,0-5.32,5.9-7.35,5.77-31.41,7.21-31.92,7.08-14.06,7.08-14.06c0,0-1.41-18.88,12.94-39.94,0,0-9.29-13.94-16.85-10.22Z"/><path class="cls-24" d="M112.3,211.7l10.65,16.35,27.87-12.43c1.5-.58-22.43,2.38-38.52-3.92Z"/><path class="cls-13" d="M156.11,217.25l3.02,4.59c-14.24,23.35-36.47,27.32-33.01,26.69s-3.02-24.19-2.81-19.81c.22,4.38-8.85,16.26-8.85,16.26l-10.36-22.31,2.93-11.4,5.5,1.18,10.41,15.6c.37.67,28.52-16.19,33.16-10.8Z"/><path class="cls-24" d="M53.77,360.8c.89,11.72-11.2,9.17-11.2,9.17-6.93-4.06-8.7-6.57-10.07-9.85-1.08-2.57-2.2-4.89-3.5-13.6-3.04-20.32,19.14-40.44,19.14-40.44,5.86-8.99,20.4-57.51,25.19-56.99,1.08.12-3.08,36.9-3.59,67.75-.06,3.87-2.26,3.85-2.33,7.45-.66,34.98-9.14,38.26-9.84,38.04-1.95-.6-4.55-1.1-5.21-1.97-9.46-12.5-1.53-30.27-2.87-28.55"/><path class="cls-24" d="M187.65,295.97s-11.77,21.06-18.25,21.06c-9.08,0-27.23-1.95-26.32,8.56.06.71.71,2.23,1.84,2.62,4.91,1.71,13.35-2.27,12.53-1.57,2.4-.51-22.77,4.15-10.03,22.4,0,0,6.65,6.64,9.04-2.78.12-1.28-2.24,15.44,6.97,19.04,0,0,3.78-.19,4.18-7.69,0,0,3.13,12.57,10.95,10.96,8.38-1.73,2.1-16.6,3.17-14.23,0,0-1.97-3.65-4.96-.58s9.55-17.5,5.17-20.39c0,0,41.75-17.32,43.79-34.24,0,0,10.74-16.31,1.59-21.51-.77,3.23-36.6,21.69-39.67,18.34Z"/><path class="cls-14" d="M222.77,289.11s1.4,10.45-10.01,21.48"/><path class="cls-22" d="M68.35,340.13s1.33,122.9-1.44,130.39c-2.77,7.49,1.23,14.45,1.23,14.45,0,0-2.34,67.97-11.75,72.25,0,0-5.53-3.94-8.32-3.04s-11.52,16.51-8.36,17.95,31.02,9.33,37.89,6.1c0,0,8.17,10.41,48.11-7.54,0,0,7.62-8.08-4.27-17.05,0,0-10.4-46.58-6.53-57.26,3.87-10.68-4.15-16.96,7.18-68.1,0,0,10.78,61.82,13.54,61.29,0,0,8.01,39.52,5.8,39.79s-5.31,10.95.39,15.76c5.69,4.81-7.02,24.84-7.02,24.84l29.57,2.94s7.46,4.01,14.09-2.94c0,0,1.66,5.34,17.96-2.4,0,0,9.12,10.68,27.08-6.41,0,0-2.21-15.22-8.01-23.77,0,0-1.11-3.2-6.91-1.87-5.8,1.34-30.82-103.31-29.48-105.04s-.89-54.03-10.29-64.83l-1.22-8.03c.63,3.36-1.1,5.31-2.1,6.51-2.99,3.61-9.71-2.14-9.05-17.86,0,0-4.25,12.6-11.34-1.21,0,0-70.5,6.61-76.77-4.92Z"/><path class="cls-22" d="M176.46,550.76s14.86,7.26,32.13-15.24"/><path class="cls-22" d="M150.26,551.47s-6.06-.81-8.43-6.34"/><path class="cls-22" d="M68.72,565.44s-11.89-4.51-12.33-8.21"/><path class="cls-22" d="M75.23,491.27s-4.37-2.12-7.09-6.3"/><path class="cls-22" d="M143.9,496.26s-5.78-.45-8.26-6.68"/><path class="cls-23" d="M68.36,341.09l.38,12.76,10.66.91v59.77s39.01,13.33,84.2,0l-1.97-49.98c-3.3-2.13-6.34-13.97-5.65-15.99,2.2-.23-4.22,8.77-11.05-3.11,0,0-59.54,6.52-76.57-4.35Z"/><path class="cls-13" d="M180.75,290.78v1.78h5.67l1.23,3.41c.29,1.82,22.81-4.08,40.77-19.25l-10.73-7.55-2.91-12.15-4.75-1.93-1.99.44-1.53-1.93h-3.37l-.15-2.96-3.68-2.07s1.84-5.78-8.74-5.63l-.77-6.52-13.79-3.41s-7.5,11.99-9.14,18.22c-.81,3.09-2.73,9.48-3.46,15.74-1.03,8.85.85,16.05,2.02,17.88,0,0,5.37,1.18,8.59-.89l-.27,2.54s1.77,5.57,7,4.27Z"/><line class="cls-4" x1="204.05" y1="263.23" x2="208.03" y2="255.53"/><line class="cls-4" x1="198.84" y1="256.86" x2="203.13" y2="253.6"/><path class="cls-13" d="M217.69,269.16s-30.69,15.45-31.27,23.4"/><path class="cls-4" d="M184.99,280.86s-4.59,6.83-4.24,9.92"/><path class="cls-11" d="M41.82,573.24s-42.14,16.25-16.37,35.5c0,0,79.32,13.07,100.88-33.73l-3.19-3.17s-35.74,14.47-44.88,6.17c0,0-8.85,1.94-36.45-4.77Z"/><path class="cls-13" d="M20.02,588.02s-38.21,23.39,1.88,34.93c0,0,82.62,12.72,109.54-26.32,0,0-.82-17.48-5.11-21.62,0,0-26.41,47.94-101.99,33.16,3.03.58-9.3.36-4.33-20.14Z"/><path class="cls-11" d="M139.77,570.46s3.83,13.38,15.86,24.47c7.39,6.81,18.52,12.56,31.85,11.63,0,0,34.67.97,41.95-31.56,0,0-7.88-13.02-9.97-9.56-6.94,4.99-11.14,7.27-23.03,2.13-5.61-2.42-12.55,5.89-17.96,2.4-.48,1.57-13.77,6.63-13.78,1.87.02-1.22-7.3,1.51-24.92-1.38Z"/><path class="cls-13" d="M139.77,570.46s-10.5,18.34,6.27,34.55,27.9,14.66,27.9,14.66c0,0,47.69,7.47,57.8-21.21,0,0-2.18-28-2.32-23.47,0,0-9.68,33.22-41.95,31.56-33.74-1.73-33.29-12.65-47.71-36.1Z"/><path class="cls-1" d="M47.74,333.04s-3.87,28.58,5.46,28.58"/><path class="cls-14" d="M112.54,212.46s27.74,7.96,40.26,3.45"/><path class="cls-20" d="M69.96,318.11s-2.88,21.8-1.6,22.32,1.25,7,36.94,6.9c35.69-.11,40.02-2.67,39.82-2.28s-7.19-13.02,12.33-18.41c0,0-14.88,5.48-14.42-1.56l-8.67,17.69-23.91-22.14s-5.88,7.3-31.79,17.97l-8.71-20.48Z"/><path class="cls-8" d="M215.39,135.44s8.06-6.35,6.34-11.76,5.23-13.08,6.55-12.12"/><path class="cls-8" d="M72.38,125.71s-1.88-5.45,0-8.68c1.88-3.23-3.68-14.16-3.68-14.16"/><path class="cls-20" d="M153.03,310.08s.01.05.03.13c.24.95,1.71,6.62,2.74,6.81,0,0-4.74.56-5.6.78,0,0,1.51-1.38,2.83-7.72Z"/><path class="cls-16" d="M153,309.89s1.86,7.18,2.8,7.12"/></svg>