<?xml version="1.0" encoding="UTF-8"?><svg id="Layer_2" xmlns="http://www.w3.org/2000/svg" width="90" height="130" viewBox="0 0 90 130"><defs><style>.cls-1{fill:none;}.cls-2{fill:#88cde8;opacity:.77;}.cls-2,.cls-3{stroke:#999;stroke-miterlimit:10;stroke-width:.75px;}.cls-3{fill:#971c28;opacity:.69;}.cls-4{fill:#fff;}.cls-5{opacity:.56;}</style></defs><path class="cls-2" d="M.18,9.74L35.77.03s51.19,38.75,14.07,62.18l16.5,40.38s14.33-5.1,20.9,5.22.74,12.47-10.16,19.56c-10.9,7.09-31.23-1.85-28.23-5.28,0,0-7.89-9.24,9.55-17.33l-17.29-39.93S-3.19,64.8.18,9.74Z"/><path class="cls-3" d="M57.19,37.39c5.22-3.09,4.53,20.33-14.53,23.62-12.82,2.21-27.36-3.89-33.94-22.91C2.13,19.08,19.99,14.06,20.6,13.9s7.08.25-1.38,8.24c0,0-3.19,5.05,3.34,4.33,5.37-.59,3.11-13.52,8.04-4.47,4.77,8.75-8.7,7.47,1.4,11.54,10.1,4.06,16.08,5.29,25.18,3.86Z"/><g class="cls-5"><path class="cls-4" d="M50.01,27.01s0,0,0,0c-.98-.52-1.75-1.49-1.81-2.19-.49-5.89-4.67-12.01-10.69-15.59-.71-.43-1.33-1.41-1.36-2.25t0,0c-.03-.84.76-1.13,1.71-.58,7.67,4.47,13.1,12.25,13.83,19.85.09.94-.71,1.28-1.68.76Z"/><path class="cls-1" d="M50.01,27.01s0,0,0,0c-.98-.52-1.75-1.49-1.81-2.19-.49-5.89-4.67-12.01-10.69-15.59-.71-.43-1.33-1.41-1.36-2.25t0,0c-.03-.84.76-1.13,1.71-.58,7.67,4.47,13.1,12.25,13.83,19.85.09.94-.71,1.28-1.68.76Z"/></g></svg>