<?xml version="1.0" encoding="UTF-8"?><svg id="Layer_2" xmlns="http://www.w3.org/2000/svg" width="80" height="160" viewBox="0 0 80 160"><defs><style>.cls-1{fill:#ee1d30;}.cls-2{fill:#455f4a;}.cls-3{fill:#666;}.cls-4{opacity:.37;}.cls-5{opacity:.38;}.cls-6{fill:#f2f2f2;}.cls-7{fill:#f8e8c6;}.cls-8{fill:#b3b3b3;}</style></defs><path class="cls-2" d="M60.28.29s-4.79,6.34-1.43,7.74c0,0-5.85,24.13-7.24,23.16s-12.6-.86-18.29,16.27S-4.2,139.11.46,140.14c0,0,12.83,22.59,38.76,10.13,0,0,20.87-52.35,30.05-82.42,9.18-30.07,5.56-27.59-2.85-33.6,0,0,5.07-18.68,7.38-22.22,0,0,4.29.17,4.91-7.54,0,0-11.55-5.49-18.43-4.2Z"/><path d="M63.16,33.72l-.16-.35c1.07-.37,3.28.59,3.52.7l-.2.33c-.62-.28-2.41-.95-3.16-.69Z"/><g class="cls-5"><path class="cls-1" d="M34.8,51.36S1.25,134.59,4.6,136.59c0,0,9.11,21.57,32.75,9.69,0,0,31.86-85.48,30.57-86.27l-1.29-.79s-21.64.44-31.83-7.86Z"/></g><path class="cls-7" d="M25.36,68.43s19.67,16.04,40.3,10.91l-11.8,33.62s-30.87-.42-41.23-12.15l12.73-32.38Z"/><path class="cls-7" d="M54.39,24.53l13.86,3.12s4.31-13.4,5.9-15.42c.21-.26,4.45-.73,4.56-7.74-.13-.42-12.07-5.75-18.47-4.21,0,0-4.76,6.51-1.43,7.74,0,0-4.42,16.98-4.42,16.51Z"/><path class="cls-6" d="M63.03,61.88h0c-2.24,1.09-1.14-2.75.07-4.79,3.77-6.41,3.06-10.28,1.05-16.75-.62-2.04-.27-2.83,1.19-1.86t0,0c1.45.97,3.32,2.95,3.89,4.44,1.87,4.97,2.11,8.98-.2,13.48-.66,1.34-3.77,4.39-6,5.48Z"/><path class="cls-3" d="M60.3,8.68c-.86-.22-1.48-.55-1.49-.56-.03-.01-.03-.04-.02-.06.02-.02.05-.03.08-.02.01,0,1.4.74,2.85.75.03,0,.05.02.05.05,0,.03-.02.05-.06.05-.5,0-.99-.09-1.42-.2Z"/><path class="cls-3" d="M71.73,12c-.22-.06-.44-.13-.66-.21-.03-.01-.04-.04-.03-.06.01-.02.04-.03.07-.02,1.66.63,3.26.4,3.27.4.03,0,.06.01.06.04,0,.03-.01.05-.04.05-.01,0-1.24.18-2.67-.19Z"/><g class="cls-4"><path class="cls-8" d="M55.5,30.13h0c.94.47,1.08-.11,1.39-1.08,1.69-5.13,3.43-10.24,4.5-15.21.2-.94.05-1.43-.95-1.38h0c-1.01.06-1.32.65-1.51,1.48-1.04,4.49-2.38,9.23-3.96,13.85-.29.85-.4,1.86.53,2.33Z"/></g><g class="cls-4"><path class="cls-8" d="M9.99,129.31h0c2.01,1.53,2.78-.78,4.3-4.67,8.04-20.64,16.2-41.17,22.58-60.97,1.2-3.73,1.2-5.62-1.37-5.08h0c-2.57.54-3.8,2.97-4.9,6.29-5.95,17.92-12.81,36.9-20.22,55.48-1.37,3.43-2.4,7.42-.39,8.95Z"/></g></svg>