<svg width="50" height="49" viewBox="0 0 50 49" fill="none" xmlns="http://www.w3.org/2000/svg">
<path d="M0 24.5C0 10.969 10.969 0 24.5 0H25.5C39.031 0 50 10.969 50 24.5V24.5C50 38.031 39.031 49 25.5 49H24.5C10.969 49 0 38.031 0 24.5V24.5Z" fill="#FFFBF1"/>
<path d="M28.3334 21.167C29.6594 21.167 30.9312 21.6938 31.8689 22.6315C32.8066 23.5691 33.3334 24.8409 33.3334 26.167V32.0003H30V26.167C30 25.725 29.8244 25.301 29.5119 24.9885C29.1993 24.6759 28.7754 24.5003 28.3334 24.5003C27.8913 24.5003 27.4674 24.6759 27.1548 24.9885C26.8423 25.301 26.6667 25.725 26.6667 26.167V32.0003H23.3334V26.167C23.3334 24.8409 23.8601 23.5691 24.7978 22.6315C25.7355 21.6938 27.0073 21.167 28.3334 21.167Z" stroke="#7B7B61" stroke-width="2" stroke-linecap="round" stroke-linejoin="round"/>
<path d="M20 22.0003H16.6667V32.0003H20V22.0003Z" stroke="#7B7B61" stroke-width="2" stroke-linecap="round" stroke-linejoin="round"/>
<path d="M18.3334 19.5003C19.2538 19.5003 20 18.7541 20 17.8337C20 16.9132 19.2538 16.167 18.3334 16.167C17.4129 16.167 16.6667 16.9132 16.6667 17.8337C16.6667 18.7541 17.4129 19.5003 18.3334 19.5003Z" stroke="#7B7B61" stroke-width="2" stroke-linecap="round" stroke-linejoin="round"/>
</svg>
