<?xml version="1.0" encoding="UTF-8"?><svg id="a" xmlns="http://www.w3.org/2000/svg" width="401.08" height="241.82" viewBox="0 0 401.08 241.82"><path d="M282.77,4.36c-29.28,4-33.65,9.09-49.39,40.36-13.55,28-60.31,126.54-93.09,197.09h-6.12c-28.85-67.64-58.56-135.63-87.41-202.18C34.53,11.27,28.41,8.36,0,4.36V0h102.27v4.36c-29.28,4.73-32.78,8.73-27.53,22.55,10.93,28,63.81,146.54,74.73,170.54,17.48-37.09,51.57-113.82,71.67-160.73,9.61-22.18,9.18-27.63-30.16-32.36V0h91.78v4.36Z"/><path d="M192.69,142.27v17.51s-.61,10.01,3.39,13.01,13,4,13,4v2.15h-34.21l17.82-36.66Z"/><path d="M203.75,117.45l2.45-5.03h52.23v-32.13s.65-10.5-2.35-12.5c0,0,0-2-8-4l-6-1v-2s46.32,0,46.32,0v2.34s-15.32-.34-16.32,10.66v89s-1,8,4,11,12.32,3.05,12.32,3.05v2.1h-46.31v-2.15s8.99-1,11.99-3,4-7,4-7v-49s-54.33-.34-54.33-.34Z"/><path d="M401.08,200.79v3.5h-41.51l-60.34-63.54-15.15-15.95s-5-4.97-6-4.99v-5.17s4-.84,14-9.84,50-48,50-48c0,0,9-7,8-13,0,0-2-2.77-10.5-4.38l-3.5-.62h-3v-4h59.32l-.32,4s-10,0-19,4-15,10-15,10l-62,57,74,76s9,9,14,11,9,4,17,4Z"/></svg>